<svg width="80" height="80" viewBox="0 0 80 80" fill="none" xmlns="http://www.w3.org/2000/svg">
<path d="M0 12C0 5.37258 5.37258 0 12 0H68C74.6274 0 80 5.37258 80 12V68C80 74.6274 74.6274 80 68 80H12C5.37258 80 0 74.6274 0 68V12Z" fill="black"/>
<path d="M22.264 52.48C17.9973 52.48 14.5307 51.52 11.864 49.6C9.19733 47.68 7.576 44.9813 7 41.504L14.872 40.288C15.2773 41.9947 16.1733 43.3387 17.56 44.32C18.9467 45.3013 20.696 45.792 22.808 45.792C24.664 45.792 26.0933 45.4293 27.096 44.704C28.12 43.9573 28.632 42.944 28.632 41.664C28.632 40.8747 28.44 40.2453 28.056 39.776C27.6933 39.2853 26.8827 38.816 25.624 38.368C24.3653 37.92 22.4347 37.3547 19.832 36.672C16.9307 35.904 14.6267 35.0827 12.92 34.208C11.2133 33.312 9.98667 32.256 9.24 31.04C8.49333 29.824 8.12 28.352 8.12 26.624C8.12 24.4693 8.68533 22.592 9.816 20.992C10.9467 19.392 12.5253 18.1653 14.552 17.312C16.5787 16.4373 18.968 16 21.72 16C24.408 16 26.7867 16.416 28.856 17.248C30.9467 18.08 32.632 19.264 33.912 20.8C35.192 22.336 35.9813 24.1387 36.28 26.208L28.408 27.616C28.216 26.144 27.544 24.9813 26.392 24.128C25.2613 23.2747 23.7467 22.7947 21.848 22.688C20.0347 22.5813 18.5733 22.8587 17.464 23.52C16.3547 24.16 15.8 25.0667 15.8 26.24C15.8 26.9013 16.024 27.4667 16.472 27.936C16.92 28.4053 17.816 28.8747 19.16 29.344C20.5253 29.8133 22.552 30.3893 25.24 31.072C27.992 31.776 30.1893 32.5867 31.832 33.504C33.496 34.4 34.6907 35.4773 35.416 36.736C36.1627 37.9947 36.536 39.52 36.536 41.312C36.536 44.7893 35.2667 47.52 32.728 49.504C30.2107 51.488 26.7227 52.48 22.264 52.48Z" fill="#00E2FF"/>
<path d="M57.0081 68.32C55.0881 68.32 53.2427 68.0213 51.4721 67.424C49.7227 66.8267 48.1441 65.9627 46.7361 64.832C45.3281 63.7227 44.1761 62.3787 43.2801 60.8L50.3841 57.28C51.0454 58.5387 51.9734 59.4667 53.1681 60.064C54.3841 60.6827 55.6747 60.992 57.0401 60.992C58.6401 60.992 60.0694 60.704 61.3281 60.128C62.5867 59.5733 63.5574 58.7413 64.2401 57.632C64.9441 56.544 65.2747 55.1787 65.2321 53.536V43.712H66.1921V17.44H72.9441V53.664C72.9441 54.5387 72.9014 55.3707 72.8161 56.16C72.7521 56.9707 72.6347 57.76 72.4641 58.528C71.9521 60.768 70.9707 62.6027 69.5201 64.032C68.0694 65.4827 66.2667 66.56 64.1121 67.264C61.9787 67.968 59.6107 68.32 57.0081 68.32ZM56.3361 52.96C53.1574 52.96 50.3841 52.16 48.0161 50.56C45.6481 48.96 43.8134 46.784 42.5121 44.032C41.2107 41.28 40.5601 38.176 40.5601 34.72C40.5601 31.2213 41.2107 28.1067 42.5121 25.376C43.8347 22.624 45.7014 20.4587 48.1121 18.88C50.5227 17.28 53.3601 16.48 56.6241 16.48C59.9094 16.48 62.6614 17.28 64.8801 18.88C67.1201 20.4587 68.8161 22.624 69.9681 25.376C71.1201 28.128 71.6961 31.2427 71.6961 34.72C71.6961 38.1547 71.1201 41.2587 69.9681 44.032C68.8161 46.784 67.0987 48.96 64.8161 50.56C62.5334 52.16 59.7067 52.96 56.3361 52.96ZM57.5201 46.048C59.5894 46.048 61.2534 45.5787 62.5121 44.64C63.7921 43.68 64.7201 42.3467 65.2961 40.64C65.8934 38.9333 66.1921 36.96 66.1921 34.72C66.1921 32.4587 65.8934 30.4853 65.2961 28.8C64.7201 27.0933 63.8134 25.7707 62.5761 24.832C61.3387 23.872 59.7387 23.392 57.7761 23.392C55.7067 23.392 54.0001 23.904 52.6561 24.928C51.3121 25.9307 50.3201 27.296 49.6801 29.024C49.0401 30.7307 48.7201 32.6293 48.7201 34.72C48.7201 36.832 49.0294 38.752 49.6481 40.48C50.2881 42.1867 51.2587 43.5413 52.5601 44.544C53.8614 45.5467 55.5147 46.048 57.5201 46.048Z" fill="#33BBFF"/>
</svg>
